/* XPM */
static char *_23cec6021344a19f5b8d6e6a21f5030Vy6VL3fVaFPTcgPo[] = {
/* columns rows colors chars-per-pixel */
"64 64 40 1 ",
"  c None",
". c #3482B6",
"X c #3586BB",
"o c #3689BF",
"O c #398DC4",
"+ c #3A90C9",
"@ c #3C93CD",
"# c #3D97D2",
"$ c #3F9AD7",
"% c #4A9FD7",
"& c #419FDD",
"* c #4CA5DF",
"= c #66A1C8",
"- c #68A4CC",
"; c #69A6CF",
": c #6AA9D2",
"> c #6BABD6",
", c #6CAED9",
"< c #6DB1DD",
"1 c #58ABE1",
"2 c #64B1E3",
"3 c #70B7E5",
"4 c #7CBDE7",
"5 c #85BEE2",
"6 c #88C3E9",
"7 c #94C9EB",
"8 c #9ECBE8",
"9 c #A0CFEE",
"0 c #ABD5F0",
"q c #B7D9F0",
"w c #B7DBF2",
"e c #C3DFF2",
"r c #C3E1F4",
"t c #CFE7F6",
"y c #DBECF7",
"u c #DBEDF8",
"i c #E7F2FA",
"p c #E7F3FA",
"a c #F3F9FC",
"s c white",
/* pixels */
"                                                                ",
"                                                                ",
"                                                                ",
"                                                                ",
"                                                                ",
"                                                                ",
"                                                                ",
"                                                                ",
"                                                                ",
"                                                                ",
"                                                                ",
"                                                                ",
"                                                                ",
"                                                                ",
"                                                                ",
"                                                                ",
"                                                                ",
"                                                                ",
"                   ssssss                                       ",
"                 sssssssssss                                    ",
"               ssssssssssssss                                   ",
"              ssssu733336rssss                                  ",
"             ssss7&&&&&&&&2ssss                                 ",
"             sssw&&&&&&&&&&6ssss                                ",
"            sssw&&&&&&&&&&&&6sss                                ",
"           sssu&&&&&&&&&&&&&&9sss                               ",
"           sss3&&&&&&&&&&&&&&&pssssssssssssssssssss             ",
"           ssu&&&&&&&&&&&&&&&&7sssssssssssssssssssss            ",
"          sss7&&&&&&4ss0&&&&&&1ssssssssssssssssssssss           ",
"          sss3&&&&&*asss3&&&&&&&&&&&&&&&&&&&&&&&14uss           ",
"          sss&&&&&&7ssssr&&&&&&&&&&&&&&&&&&&&&&&&&6sss          ",
"          sss&&&&&&tsssss&&&&&&&&&&&&&&&&&&&&&&&&&&sss          ",
"          sss&&&&&&tsssss&&&&&&&&&&&&&&&&&&&&&&&&&&sss          ",
"          sss&&&&&&tssssp&&&&&&&&&&&&&&&&&&&&&&&&&*sss          ",
"          sss*&&&&&7ssssw&&&&&&&&&&&&&&&&&&&&&&&&&6sss          ",
"          sss3&&&&&1asss3&&&&&&333333%##########%6sss           ",
"          sss9&&&&&&7ssr&&&&&&1ssssss=..........=ssss           ",
"           ssu&&&&&&&23&&&&&&&7ssssss-XXXXXXXXXX-sss            ",
"           sss1&&&&&&&&&&&&&&&pssssss-oooooooooo-sss            ",
"           ssst&&&&&&&&&&&&&&7sss sss:OOOOOOOOOO:sss            ",
"            sss6&&&&&&&&&&&&2ass  sss>++++++++++>sss            ",
"            ssss4&&&&&&&&&&1asss  sss,@@@@@@@@@@,sss            ",
"             sssa7&&&&&&&&2psss   sss<###5885###<sss            ",
"              sssst4&&&&2wssss    ssse$$$yssp$$$wsss            ",
"               ssssssssssssss      ssssssssssssssss             ",
"                 sssssssssss       ssssssssssssssss             ",
"                  ssssssss          ssssssssssssss              ",
"                                                                ",
"                                                                ",
"                                                                ",
"                                                                ",
"                                                                ",
"                                                                ",
"                                                                ",
"                                                                ",
"                                                                ",
"                                                                ",
"                                                                ",
"                                                                ",
"                                                                ",
"                                                                ",
"                                                                ",
"                                                                ",
"                                                                "
};
