/* XPM */
static char *_32e4f279e5f4edcd95fa0f2d5348e56iKB9vQWTaMClI1U4[] = {
/* columns rows colors chars-per-pixel */
"64 64 131 2 ",
"   c None",
".  c #000101",
"X  c #162121",
"o  c #1A2324",
"O  c #2C2525",
"+  c #2F2B2B",
"@  c #312F2F",
"#  c #33302F",
"$  c #263B3B",
"%  c #323232",
"&  c #383635",
"*  c #3B3D3D",
"=  c #393F40",
"-  c #2A4445",
";  c #374141",
":  c #3C474A",
">  c #444D4E",
",  c #465152",
"<  c #455559",
"1  c #47595C",
"2  c #4D5C5C",
"3  c #495C61",
"4  c #4C6065",
"5  c #536465",
"6  c #596567",
"7  c #56676B",
"8  c #5A6769",
"9  c #5C6C6C",
"0  c #4B7478",
"q  c #5F797E",
"w  c #697E7F",
"e  c #9F6D3D",
"r  c #A16A36",
"t  c #A06D3C",
"y  c #B3773F",
"u  c #B4783F",
"i  c #9E7145",
"p  c #99734B",
"a  c #957754",
"s  c #987450",
"d  c #937856",
"f  c #997954",
"g  c #927959",
"h  c #997E5C",
"j  c #A57040",
"k  c #AC7845",
"l  c #AE7B4A",
"z  c #B47A44",
"x  c #B87A42",
"c  c #B17B48",
"v  c #A2825C",
"b  c #8B826C",
"n  c #9C8162",
"m  c #90846C",
"M  c #878677",
"N  c #8A8774",
"B  c #868778",
"V  c #86897B",
"C  c #888878",
"Z  c #A68660",
"A  c #A48866",
"S  c #5E7B81",
"D  c #637E84",
"F  c #658085",
"G  c #66878D",
"H  c #69868B",
"J  c #6C8A8F",
"K  c #7D8686",
"L  c #7D8887",
"P  c #7C8688",
"I  c #71898B",
"U  c #798A8D",
"Y  c #7F908A",
"T  c #678A90",
"R  c #6C8D93",
"E  c #778C91",
"W  c #788B90",
"Q  c #6F9097",
"!  c #6F969D",
"~  c #72959B",
"^  c #75989F",
"/  c #789A9F",
"(  c #6F97A1",
")  c #6F98A1",
"_  c #7097A0",
"`  c #769AA1",
"'  c #7A9CA1",
"]  c #7FA2A7",
"[  c #77A1AA",
"{  c #7BA3AA",
"}  c #7EA8AF",
"|  c #84938B",
" . c #899489",
".. c #909384",
"X. c #929484",
"o. c #919383",
"O. c #81A1A5",
"+. c #81A2A6",
"@. c #82A3A6",
"#. c #81A3A8",
"$. c #81A3A9",
"%. c #81A4A8",
"&. c #82A4A9",
"*. c #80A4AA",
"=. c #81A5AA",
"-. c #80A5AB",
";. c #81A6AB",
":. c #87A7AA",
">. c #81A7AE",
",. c #86AAAF",
"<. c #87ABAF",
"1. c #88A8AA",
"2. c #88A8AB",
"3. c #89A8AB",
"4. c #83ABB1",
"5. c #85ABB1",
"6. c #87ABB0",
"7. c #86ACB1",
"8. c #86ACB2",
"9. c #87ACB2",
"0. c #83ADB5",
"q. c #83AEB5",
"w. c #83AEB6",
"e. c #84AFB6",
"r. c #85B0B7",
"t. c #85B0B8",
"y. c #86B1B8",
"u. c #85B2B9",
"i. c #85B3BA",
"p. c #80B1BC",
"a. c #80B2BD",
/* pixels */
"          > 9 7 a x z z z z z z z z z z z z z z z z z z z z z z z z z z z z z z z z z z z z z z z z z z z x p 7 9 2 o           ",
"    ; { u.e.0.p.A u z z z z z z z z z z z z z z z z z z z z z z z z z z z z z z z z z z z z z z z z z z z y Z p.e.e.r.} :       ",
"  w u.4.O.` ~ ( g r e e e e e e e e e e e e e z z z z z z z z z z z z z z z z z e e e e e e e e e e e e e t a ` ' ' ` } u.I     ",
"< 0.` ~ ~ ~ ~ ( g r t t t t t t t t t t t t e z z z z z z z z z z z z z z z z z e t t t t t t t t t t t t t a ) ~ ~ ~ ~ / 0.5   ",
"u.` ~ ~ ~ ~ ~ ( g r t t t t t t t t t t t t e z z z z z z z z z z z z z z z z z e t t t t t t t t t t t t t a ) ~ ~ ~ ~ ~ / '   ",
"` ~ ~ ~ ~ ~ ~ ( g r t t t t t t t t t t t t e z z z z z z z z z z z z z z z z z e t t t t t t t t t t t t t a ) ~ ~ ~ ~ ~ ~ `   ",
"~ ~ ~ ~ ~ ~ ~ ( g r t t t t t t t t t t t t e z z z z z z z z z z z z z z z z z e t t t t t t t t t t t t t a ) ~ ~ ~ ~ ~ ~ ~ 2 ",
"~ ~ ~ ~ ~ ~ ~ ( g r t t t t t t t t t t t t e z z z z z z z z z z z z z z z z z e t t t t t t t t t t t t t a ) ~ ~ ~ ~ ~ ~ ~ ~ ",
"~ ~ ~ ~ ~ ~ ~ ( g r t t t t t t t t t t t t e z z z z z z z z z z z z z z z z z e t t t t t t t t t t t t t a ) ~ ~ ~ ~ ~ ~ ~ / ",
"~ ~ ~ ~ ~ ~ ~ ( g r t t t t t t t t t t t t e z z z z z z z z z z z z z z z z z e t t t t t t t t t t t t t a ) ~ ~ ~ ~ ~ ~ ~ ~ ",
"~ ~ ~ ~ ~ ~ ~ ( g r t t t t t t t t t e e e e z z z z z z z z z z z z z z z z z e t t t t t t t t t t t t t a ) ~ ~ ~ ~ ~ ~ ~ ~ ",
"~ ~ ~ ~ ~ ~ ~ ( g r t t t t t t t t t e e e e z z z z z z z z z z z z z z z z z e t t t t t t t t t t t t t a ) ~ ~ ~ ~ ~ ~ ~ ~ ",
"~ ~ ~ ~ ~ ~ ~ ( g r t t t t t t t t t t t t e z z z z z z z z z z z z z z z z z e t t t t t t t t t t t t t a ) ~ ~ ~ ~ ~ ~ ~ ~ ",
"~ ~ ~ ~ ~ ~ ~ ( g r t t t t t t t t t t t t e z z z z z z c c c c c z z z z z z e t t t t t t t t t t t t t a ) ~ ~ ~ ~ ~ ~ ~ ~ ",
"~ ~ ~ ~ ~ ~ ~ ( g r t t t t t t t t t t t t e z x z l n M K K K K P B n l z x z e t t t t t t t t t t t t t a ) ~ ~ ~ ~ ~ ~ ~ ~ ",
"~ ~ ~ ~ ~ ~ ~ ( g r t t t t t t t t t t t t e z l n U ~ ~ ~ ~ ~ ~ ~ ~ ! U n l z e t t t t t t t t t t t t t a ) ~ ~ ~ ~ ~ ~ ~ ~ ",
"~ ~ ~ ~ ~ ~ ~ ( d r r r r r r r r r r r r r r k N ~ ~ ~ ~ ~ ~ ~ ~ ~ ~ ~ ~ ! C l r r r r r r r r r r r r r r a ) ~ ~ ~ ~ ~ ~ ~ ~ ",
"~ ~ ~ ~ ~ ~ ~ ~ b h h h h h h h h h h h h h h N ~ ~ ~ ~ ~ ~ ~ ~ ~ ~ ~ ~ ~ ~ ~ V g h h h h h h h h h h h h h m ~ ~ ~ ~ ~ ~ ~ ~ ~ ",
"~ ~ ~ ~ ~ ~ ~ ~ &.9.5.5.5.5.5.5.5.5.5.5.5.9.[ _ ~ ~ ~ ~ ~ ^ / / / / ~ ~ ~ ~ ~ ~ [ 9.5.5.5.5.5.5.5.5.5.5.5.9.&.~ ~ ~ ~ ~ ~ ~ ~ ~ ",
"~ ~ ~ ~ ~ ~ ~ ~ O.2.:.:.:.:.:.:.:.:.:.:.2.' ~ ~ ~ ~ ~ ~ ~ S 6 8 6 q Q ~ ~ ~ ~ ~ ~ ' 2.:.:.:.:.:.:.:.:.:.:.2.O.~ ~ ~ ~ ~ ~ ~ ~ ~ ",
"~ ~ ~ ~ ~ ~ ~ ~ O.2.:.:.:.:.:.:.:.:.:.:.2./ ~ ~ ~ ~ ~ ~ S * & & & * S ~ ~ ~ ~ ~ ~ / 2.:.:.:.:.:.:.:.:.:.:.2.O.~ ~ ~ ~ ~ ~ ~ ~ ~ ",
"~ ~ ~ ~ ~ ~ ~ ~ O.2.:.:.:.:.:.:.:.:.:.2.&./ ~ ~ ~ ~ ~ R = @ % % % @ * H ~ ~ ~ ~ ~ / #.2.:.:.:.:.:.:.:.:.:.2.O.~ ~ ~ ~ ~ ~ ~ ~ ~ ",
"~ ~ ~ ~ ~ ~ ~ ~ O.2.:.:.:.:.:.:.:.:.:.2.' ~ ~ ~ ~ ~ ~ H + % % % % % + F ~ ~ ~ ~ ~ ~ ' 2.:.:.:.:.:.:.:.:.:.2.O.~ ~ ~ ~ ~ ~ ~ ~ ~ ",
"~ ~ ~ ~ ~ ~ ~ ~ O.2.:.:.:.:.:.:.:.:.:.2.' ~ ~ ~ ~ ~ ~ J * % % % % % + F ~ ~ ~ ~ ~ ~ / 2.:.:.:.:.:.:.:.:.:.2.O.~ ~ ~ ~ ~ ~ ~ ~ ~ ",
"~ ~ ~ ~ ~ ~ ~ ~ O.2.:.:.:.:.:.:.:.:.:.2.' ~ ~ ~ ~ ~ ~ Q 4 @ % % % @ < R ~ ~ ~ ~ ~ ~ / 2.:.:.:.:.:.:.:.:.:.2.O.~ ~ ~ ~ ~ ~ ~ ~ ~ ",
"~ ~ ~ ~ ~ ~ ~ ~ O.2.:.:.:.:.:.:.:.:.:.2.' ~ ~ ~ ~ ~ ~ ~ R 3 @ % @ 3 R ~ ~ ~ ~ ~ ~ ~ / 2.:.:.:.:.:.:.:.:.:.2.O.~ ~ ~ ~ ~ ~ ~ ~ ~ ",
"~ ~ ~ ~ ~ ~ ~ ~ O.2.:.:.:.:.:.:.:.:.:.2.' ~ ~ ~ ~ ~ ~ ~ R 3 @ % @ 1 R ~ ~ ~ ~ ~ ~ ~ / 2.:.:.:.:.:.:.:.:.:.2.O.~ ~ ~ ~ ~ ~ ~ ~ ~ ",
"~ ~ ~ ~ ~ ~ ~ ~ O.2.:.:.:.:.:.:.:.:.:.2.' ~ ~ ~ ~ ~ ~ ~ D + % % % + q ~ ~ ~ ~ ~ ~ ~ ' 2.:.:.:.:.:.:.:.:.:.2.O.~ ~ ~ ~ ~ ~ ~ ~ ~ ",
"~ ~ ~ ~ ~ ~ ~ ~ O.2.:.:.:.:.:.:.:.:.:.2.] ^ ~ ~ ~ ~ ~ R 1 % % % % # < R ~ ~ ~ ~ ~ ~ ] 2.:.:.:.:.:.:.:.:.:.2.O.~ ~ ~ ~ ~ ~ ~ ~ ~ ",
"~ ~ ~ ~ ~ ~ ~ ~ O.2.:.:.:.:.:.:.:.:.:.2.&.` ~ ~ ~ ~ ~ H O @ @ @ @ @ O D ~ ~ ~ ~ ~ ~ #.2.:.:.:.:.:.:.:.:.:.2.O.~ ~ ~ ~ ~ ~ ~ ~ ~ ",
"~ ~ ~ ~ ~ ~ ~ ~ &.5.<.<.<.<.<.<.<.<.<.<.<.>.` ~ ~ ~ ~ R > , , , , , > H ~ ~ ~ ~ ~ [ 5.<.<.<.<.<.<.<.<.<.<.<.&.~ ~ ~ ~ ~ ~ ~ ~ ~ ",
"~ ~ ~ ~ ~ ~ ~ ~  .o.......................o.| ~ ~ ~ ~ ~ ` ` ` ` ` ` ` ~ ~ ~ ~ ~ Y X.......................o. .~ ~ ~ ~ ~ ~ ~ ~ ~ ",
"~ ~ ~ ~ ~ ~ ~ ( a r r r r r r r r r r r r r i K ~ ~ ~ ~ ~ ~ ~ ~ ~ ~ ~ ~ ~ ~ ~ L i r r r r r r r r r r r r r a ) ~ ~ ~ ~ ~ ~ ~ ~ ",
"~ ~ ~ ~ ~ ~ ~ ( g r t t t t t t t t t t t t t p C ~ ~ ~ ~ ~ ~ ~ ~ ~ ~ ~ ~ ~ V p t t t t t t t t t t t t t t a ) ~ ~ ~ ~ ~ ~ ~ ~ ",
"~ ~ ~ ~ ~ ~ ~ ( g r t t t t t t t t t t t t t t i C U ~ ~ ~ ~ ~ ~ ~ ~ ~ W V i t t t t t t t t t t t t t t t a ) ~ ~ ~ ~ ~ ~ ~ ~ ",
"~ ~ ~ ~ ~ ~ ~ ( g r t t t t t t t t t t t t t t t i p V E ) _ _ _ ) E V s i t t t t t t t t t t t t t t t t a ) ~ ~ ~ ~ ~ ~ ~ ~ ",
"~ ~ ~ ~ ~ ~ ~ ( g r t t t t t t t t t t t t t t t t t i i p p p p p p i t t t t t t t t t t t t t t t t t t a ) ~ ~ ~ ~ ~ ~ ~ ~ ",
"~ ~ ~ ~ ~ ~ ~ ( g r t t t t t t t t t t t t t t t t t t t t t t t t t t t t t t t t t t t t t t t t t t t t a ) ~ ~ ~ ~ ~ ~ ~ ~ ",
"~ ~ ~ ~ ~ ~ ~ ( v x z z z z z z z z z z z z z z z z z z z z z z z z z z z z z z z z z z z z z z z z z z z x v ( ~ ~ ~ ~ ~ ~ ~ ~ ",
"~ ~ ~ ~ ~ ~ ~ ( v x z z z z z z z z z z z z z z z z z z z z z z z z z z z z z z z z z z z z z z z z z z z x v ( ~ ~ ~ ~ ~ ~ ~ ~ ",
"~ ~ ~ ~ ~ ~ ~ ( v x z z z z z z z z z z z z z z z z z z z z z z z z z z z z z z z z z z z z z z z z z z z x v ( ~ ~ ~ ~ ~ ~ ~ ~ ",
"~ ~ ~ ~ ~ ~ ~ ( v x z z z z z z z z z z z z z z z z z z z z z z z z z z z z z z z z z z z z z z z z z z z x v ( ~ ~ ~ ~ ~ ~ ~ ~ ",
"~ ~ ~ ~ ~ ~ ~ ( v x z z z z z z z z z z z z z z z z z z z z z z z z z z z z z z z z z z z z z z z z z z z x v ( ~ ~ ~ ~ ~ ~ ~ ~ ",
"~ ~ ~ ~ ~ ~ ~ ( v x z z z z z z z z z z z z z z z z z z z z z z z z z z z z z z z z z z z z z z z z z z z x v ( ~ ~ ~ ~ ~ ~ ~ ~ ",
"~ ~ ~ ~ ~ ~ ~ ( v x z z z z z z z z z z z z z z z z z z z z z z z z z z z z z z z z z z z z z z z z z z z x v ( ~ ~ ~ ~ ~ ~ ~ ~ ",
"~ ~ ~ ~ ~ ~ ~ ( v x z z z z z z z z z z z z z z z z z z z z z z z z z z z z z z z z z z z z z z z z z z z x v ( ~ ~ ~ ~ ~ ~ ~ ~ ",
"~ ~ ~ ~ ~ ~ ~ ( v x z z z z z z z z z z z z z z z z z z z z z z z z z z z z z z z z z z z z z z z z z z z x v ( ~ ~ ~ ~ ~ ~ ~ ~ ",
"~ ~ ~ ~ ~ ~ ~ ( g t j j j j j j j j j j j j j j j j j j j j j j j j j j j j j j j j j j j j j j j j j j j t f ) ~ ~ ~ ~ ~ ~ ~ ~ ",
"~ ~ ~ ~ ~ ~ ~ ( g r e e e e e e e e e e e e e e e e e e e e e e e e e e e e e e e e e e e e e e e e e e e t a ) ~ ~ ~ ~ ~ ~ ~ ~ ",
"~ ~ ~ ~ ~ ~ ~ ( g r t t t t t t t t t t t t t t t t t t t t t t t t t t t t t t t t t t t t t t t t t t t t a ) ~ ~ ~ ~ ~ ~ ~ ~ ",
"~ ~ ~ ~ ~ ~ ~ ( g r t t t t t t t t t t t t t t t t t t t t t t t t t t t t t t t t t t t t t t t t t t t t a ) ~ ~ ~ ~ ~ ~ ~ ~ ",
"~ ~ ~ ~ ~ ~ ~ ( g r t t t t t t t t t t t t t t t t t t t t t t t t t t t t t t t t t t t t t t t t t t t t a ) ~ ~ ~ ~ ~ ~ ~ ~ ",
"~ ~ ~ ~ ~ ~ ~ ( g r t t t t t t t t t t t t t t t t t t t t t t t t t t t t t t t t t t t t t t t t t t t t a ) ~ ~ ~ ~ ~ ~ ~ ~ ",
"~ ~ ~ ~ ~ ~ ~ ( g r t t t t t t t t t t t t t t t t t t t t t t t t t t t t t t t t t t t t t t t t t t t t a ) ~ ~ ~ ~ ~ ~ ~ ~ ",
"~ ~ ~ ~ ~ ~ ~ ( d r r r r r r r r r r r r r r r r r r r r r r r r r r r r r r r r r r r r r r r r r r r r r a ) ~ ~ ~ ~ ~ ~ ~ ~ ",
"~ ~ ~ ~ ~ ~ ~ ~ b d g g g g g g g g g g g g g g g g g g g g g g g g g g g g g g g g g g g g g g g g g g g d b ~ ~ ~ ~ ~ ~ ~ ~ ~ ",
"~ ~ ~ ~ ~ ~ ~ ~ ~ ) ( ( ( ( ( ( ( ( ( ( ( ( ( ( ( ( ( ( ( ( ( ( ( ( ( ( ( ( ( ( ( ( ( ( ( ( ( ( ( ( ( ( ( ) ~ ~ ~ ~ ~ ~ ~ ~ ~ ~ ",
"~ ~ ~ ~ ~ ~ ~ ~ ~ ~ ~ ~ ~ ~ ~ ~ ~ ~ ~ ~ ~ ~ ~ ~ ~ ~ ~ ~ ~ ~ ~ ~ ~ ~ ~ ~ ~ ~ ~ ~ ~ ~ ~ ~ ~ ~ ~ ~ ~ ~ ~ ~ ~ ~ ~ ~ ~ ~ ~ ~ ~ ~ ~ ^ ",
"~ ~ ~ ~ ~ ~ ~ ~ ~ ~ ~ ~ ~ ~ ~ ~ ~ ~ ~ ~ ~ ~ ~ ~ ~ ~ ~ ~ ~ ~ ~ ~ ~ ~ ~ ~ ~ ~ ~ ~ ~ ~ ~ ~ ~ ~ ~ ~ ~ ~ ~ ~ ~ ~ ~ ~ ~ ~ ~ ~ ~ ~ ~ 0 ",
"~ ~ ~ ~ ~ ~ ~ ~ ~ ~ ~ ~ ~ ~ ~ ~ ~ ~ ~ ~ ~ ~ ~ ~ ~ ~ ~ ~ ~ ~ ~ ~ ~ ~ ~ ~ ~ ~ ~ ~ ~ ~ ~ ~ ~ ~ ~ ~ ~ ~ ~ ~ ~ ~ ~ ~ ~ ~ ~ ~ ~ ~ ~ X ",
"/ ~ ~ ~ ~ ~ ~ ~ ~ ~ ~ ~ ~ ~ ~ ~ ~ ~ ~ ~ ~ ~ ~ ~ ~ ~ ~ ~ ~ ~ ~ ~ ~ ~ ~ ~ ~ ~ ~ ~ ~ ~ ~ ~ ~ ~ ~ ~ ~ ~ ~ ~ ~ ~ ~ ~ ~ ~ ~ ~ ~ ~ /   ",
"- ^ ~ ~ ~ ~ ~ ~ ~ ~ ~ ~ ~ ~ ~ ~ ~ ~ ~ ~ ~ ~ ~ ~ ~ ~ ~ ~ ~ ~ ~ ~ ~ ~ ~ ~ ~ ~ ~ ~ ~ ~ ~ ~ ~ ~ ~ ~ ~ ~ ~ ~ ~ ~ ~ ~ ~ ~ ~ ~ ~ / -   ",
"  $ ^ ~ ~ ~ ~ ~ ~ ~ ~ ~ ~ ~ ~ ~ ~ ~ ~ ~ ~ ~ ~ ~ ~ ~ ~ ~ ~ ~ ~ ~ ~ ~ ~ ~ ~ ~ ~ ~ ~ ~ ~ ~ ~ ~ ~ ~ ~ ~ ~ ~ ~ ~ ~ ~ ~ ~ ~ ~ / -     ",
"      G ~ ~ ~ ~ ~ ~ ~ ~ ~ ~ ~ ~ ~ ~ ~ ~ ~ ~ ~ ~ ~ ~ ~ ~ ~ ~ ~ ~ ~ ~ ~ ~ ~ ~ ~ ~ ~ ~ ~ ~ ~ ~ ~ ~ ~ ~ ~ ~ ~ ~ ~ ~ ~ ~ ~ T o . . . "
};
