/* XPM */
static char *_46064ffc70448cfa1ed22b44d093899SCUqjo43e8kQKZrj[] = {
/* columns rows colors chars-per-pixel */
"64 64 11 1 ",
"  c #AE773E",
". c #B37A3F",
"X c #B47B41",
"o c #B57C41",
"O c #B97E43",
"+ c #BA7F43",
"@ c #BB8044",
"# c #BE8245",
"$ c #C08345",
"% c #C18446",
"& c #C48646",
/* pixels */
"@@@@@@@@@@@@@@@@@@@@@@@@@@@@@@@@@@@@@@o         o@@@@@@@@@@@@@@@",
"@@@@@@@@@@@@@@@@@@@@@@@@@@@@@@@@@@@@@@X         O@@@@@@@@@@@@@@@",
"@@@@@OX o@@@@@@@@@@@@@@@@@@@@@@@@@@@@@X         @@@@@@@@@@@@@@@@",
"@@@O.   .@@@@@@@@@#$@@@@@@@@@@@@@@@@@@.         @@@@@@@@@@@@@@@@",
"@@@      o@@@@@@@#%&%@@@@@@@@@@@@@@@@@.         @@@@@@@@@@@@@@@@",
"@@@o     .@@@@@@@%&&&%@@@@@@@@@@@@@@@@@@OooXX...@@@@@@@@@@@@@@@@",
"@@@@      O@@@@@%&&&&&%#@@@@@@@@@@@@@@@@@@@@@@@@@@@@@@@@@@@@@@@@",
"@@@@o   oO@@@@@%&&&&&&&%#@@@@@@@@@@@@@@@@@@@@@@@@@@@@@@@@@@@@@@@",
"@@@@@.o@@@@@@@%&&&&&&&&&%#@@@@@@@@@@@@@@@@@@@@@@@@@@@@@@@@@@@@@@",
"@@@@@@@@@@@@@$&&&&&&&&&&&%@@@@@@@@@@@@@@@@@@@@@@@@@@@@@@@@@@@@@@",
"@@@@@@@@@@@@@#&&&&&&&&&&%#@@@@@@@@@@@@@@@@@@@@@@@@@@@@@@@@@@@@@@",
"@@@@@@@@@@@@@@#&&&&&&&&&#@@@@@@@@@@@@@@@@@@@@@@@@@@@@@@@@@@@@@@@",
"@@@@@@@@@@@@@@@#&&&&&&&#@@@@@@@@@@@@@@@@@@@@@@@@@@@@@@@@@@@@@@@@",
"@@@@@@@@@@@@@@@@#%&&&&#@@@@@@@@@@@@@@@@@@@@@@@@@@@@@@@@@@@@@@@@@",
"@@@@@@@@@@@@@@@@@#%&&#@@@@@@@@@@@@@@@@@@@@@@@@@@@@@@@@@@@@@@@@@@",
"@@@@@@@@@@@@@@@@@@#%$@@@@@@@@@@@@@@@@@@@@@@@@@@@@@@@@@@@@@@@@@@@",
"@@@@@@@@@@@@@@@@@@@#@@@@@@@@@@@@@@@@@@@@@@@@@@@@@@@@@@@@@@@@@@@@",
"@@@@@@@@@@@@@@@@@@@@@@@@@@@@@@@@@@@@@@@@@@@@@@@@@@@@@@@@@@@@@@@@",
"@@@@@@@@@@@@@@@@@@@@@@@@@@@@@@@@@@@@@@@@@@@@@@@@@@@@@@@@@@@@@@@@",
"@@@@@@@@@@OXO@OO@@@@@@@@@@@@@@@@@@@@@@@@@@@@@@@@@@@@@@@@@@@@@@@@",
"@@@@@@@@@@.   .XO@@@@@@@@@@@@@@@@@@@@@@@@@@@@@@@@O.@@@@@@@@@@@@@",
"@@@@@@@@@@        .XO@@@@@@@@@@@@@@@@@@@@@@@@@@@O  .@@@@@@@@@@@@",
"@@@@@@@@@O          .@@@@@@@@@@@@@@@@@@@@@@@@@@O     O@@@@@@@@@@",
"@@@@@@@@@o          o@@@@@@@@@@@@@@@@@@@@@@@@@O       O@@@@@@@@@",
"@@@@@@@@@.          O@@@@@@@@@@@@@@@@@@@@@@@@@O      .@@@@@@@@@@",
"@@@@@@@@@           @@@@@@@@@@@@@@@@@@@@@@@@@@@O    .@@@@@@@@@@@",
"@@@@@@@@O          .@@@@@@@@@@@@@@@@@@@@@@@@@@@@O   O@@@@@@@@@@@",
"@@@@@@@@o          o@@@@@@@@@@@@@@@@@@@@@@@@@@@@@O.O@@@@@@@@@@@@",
"@@@@@@@@.          O@@@@@@@@@@@@@@@@@@@@@@@@@@@@@@@@@@@@@@@@@@@@",
"@@@@@@@@OX.        @@@@@@@@@@Oo. O@@@@@@@@@@@@@@@@@@@@@@@@@@@@@@",
"@@@@@@@@@@@@o.    .@@@@@@@OX     X@@@@@@@@@@@@@@@@@@@@@@@@@@@@@@",
"@@@@@@@@@@@@@@@Oo.o@@@@@@o        @@@@@@@@@@@@@@@@@@@@@@@@@@@@@@",
"@@@@@@@@@@@@@@@@@@@@@@@@@O        O@@@@@@@@@@@@@@@@@@@@@@@@@@@@@",
"@@@@@@@@@@@@@@@@@@@@@@@@@@.       X@@@@@@@@@@@@@@@@@@@@@@@@@@@@@",
"XX@@@@@@@@@@@@@@@@@@@@@@@@o       .@@@@@@@@@@@@@@@@@@@@@@@@@Oooo",
"  O@@@@@@@@@@@@@@@@@@@@@@@O        O@@@@@@@@@@@@@@@@@@@@@@@@o   ",
"  o@@@@@@@@@@@@@@@@@@@@@@@@.     .oO@@@@@@@@@@@@@@@@@@@@@@@@O   ",
"  X@@@@@@@@@@@@@@@@@@@@@@@@o   XO@@@@@@@@@@@@@@@@@@@@@@@@@@@@   ",
"  .@@@@@@@@@@@@@@@@@@@@@@@@OXO@@@@@@@@@@@@@@@@@@@@@@@@@@@@@@@   ",
"  .@@@@@@@@@@@@@@@@@@@@@@@@@@@@@@@@@@@@@@@@@@@@@@@@@@@@@@@@@@.  ",
"@@@@@@@@@@@@@@@@@@@@@@@@@@@@@@@@@@@@@@@@@@@@@@@@@@@@@@@@@@@@@Ooo",
"@@@@@@@@@@@@@@@@@@@@@@@@@@@@@@@@@@@@@@@@@@@@@@@@@@@@@@@@@@@@@@@@",
"@@@@@@@@@@@@@@@@@@@@@@@@@@@@@@@@@@@@@@@@@@@@@@@@#$#@@@@@@@@@@@@@",
"@@@@@@@@@@@@@@@@@@@@@@@@@@@@@@@@@@@@@@@@@@@@##%&&&%@@@@@@@@@@@@@",
"@@@@@@@@@@@@@@@@@@@@@@@@@@@@@@@@@@@@@@@@@@#%&&&&&&%@@@@@@@@@@@@@",
"@@@@@@@@@@@@@@@@@@@@@@@@@@@@@@@@@@@@@@@@@@@%&&&&&&&#@@@@@@@@@@@@",
"@@@@@@@@@@@@@@@@@@@o .Xo@@@@@@@@@@@@@@@@@@@$&&&&&&&$@@@@@@@@@@@@",
"@@@@@@@@@@@@@@@@@@@.      .oO@@@@@@@@@@@@@@#&&&&&&&%@@@@@@@@@@@@",
"@@@@@@@@@@@@@@@@@@@          X@@@@@@@@@@@@@@&&&&&&&&#@@@@@@@@@@@",
"@@@@@@@@@@@@@@@@@@O          O@@@@@@@@@@@@@@%&&&&&&%#@@Ooo@@@@@@",
"@@@@@@@@@@@@@@@@@@o          @@@@@@@@@@@@@@@#&&&%#@@@@@.    .@@@",
"@@@@@@@@@@@@@@@@@@.         .@@@@@@@@@@@@@@@#%#@@@@@@@@     X@@@",
"@@@@@@@@@@@@@@@@@@.         X@@@@@@@@@@@@@@@@@@@@@@@@@@     X@@@",
"@@@@@@@@@@@@@@@@@O          o@@@@@@@@@@@@@@@@@@@@@@@@@O     o@@@",
"@@@@@@@@@@@@@@@@@o          @@@@@@@@@@@@@@@@@@@@@@@@@@o     O@@@",
"@@@@@@@@@@@@@@@@@o          @@@@@@@@@@@@@@@@@@@@@@@@@@OoooXX@@@@",
"@@@###%#@@@@@@@@@@@Oo..    .@@@@@@@@@@@@@@@@@@@@@@@@@@@@@@@@@@@@",
"@#&&&&&#@@@@@@@@@@@@@@@@oX.o@@@@@@@@@@@@@@@@@@@@@@@@@@@@@@@@@@@@",
"@@&&&&&#@@@@@@@@@@@@@@@@@@@@@@@@@@@@@@@@@@@@@@@@@@@@@@@@@@@@@@@@",
"@@%&&&&%@@@@@@@@@@@@@@@@@@@@@@@@@@@@@@@...Xoo@@@@@@@@@@@@@@@@@@@",
"@@$&&&&%@@@@@@@@@@@@@@@@@@@@@@@@@@@@@@@        ..@@@@@@@@@@@@@@@",
"@@#&&&%%@@@@@@@@@@@@@@@@@@@@@@@@@@@@@@@         .@@@@@@@@@@@@@@@",
"@@@##@@@@@@@@@@@@@@@@@@@@@@@@@@@@@@@@@@         .@@@@@@@@@@@@@@@",
"@@@@@@@@@@@@@@@@@@@@@@@@@@@@@@@@@@@@@@o         X@@@@@@@@@@@@@@@"
};
