/* XPM */
static char *result[] = {
/* columns rows colors chars-per-pixel */
"64 64 218 2 ",
"   c #040404",
".  c #0C0C0C",
"X  c #06080B",
"o  c #1A170F",
"O  c #0D0F12",
"+  c #141413",
"@  c #1A1916",
"#  c #15191C",
"$  c #1D1D1B",
"%  c #171616",
"&  c #101012",
"*  c #211F1B",
"=  c #23221D",
"-  c #29241E",
";  c #28261C",
":  c #373718",
">  c #1B1D22",
",  c #151A23",
"<  c #0E1522",
"1  c #201F22",
"2  c #1E2224",
"3  c #1D242C",
"4  c #1D2532",
"5  c #232423",
"6  c #252825",
"7  c #2D2A24",
"8  c #23262A",
"9  c #26292B",
"0  c #2B2C2B",
"q  c #2A2722",
"w  c #322E24",
"e  c #312E2B",
"r  c #2E312C",
"t  c #353224",
"y  c #34322C",
"u  c #3A362B",
"i  c #3C382B",
"p  c #252C32",
"a  c #2B2E32",
"s  c #2D3131",
"d  c #2E353E",
"f  c #333533",
"g  c #3C3A34",
"h  c #33373A",
"j  c #35393B",
"k  c #3C3D3B",
"l  c #373936",
"z  c #433C2E",
"x  c #413D32",
"c  c #3C4238",
"v  c #4F4D1E",
"b  c #565318",
"n  c #494527",
"m  c #59572C",
"M  c #464134",
"N  c #4B4434",
"B  c #45433B",
"V  c #4C463A",
"C  c #4D493C",
"Z  c #434A3F",
"A  c #534C3B",
"S  c #564C3B",
"D  c #56503E",
"F  c #5A523E",
"G  c #5A5530",
"H  c #726E23",
"J  c #6E6A15",
"K  c #333D44",
"L  c #393F42",
"P  c #2A3649",
"I  c #3C4243",
"U  c #3C444A",
"Y  c #384A55",
"T  c #3F5157",
"R  c #434442",
"E  c #474945",
"W  c #4B4A44",
"Q  c #444A4B",
"!  c #4C4E4A",
"~  c #424749",
"^  c #514E42",
"/  c #504F48",
"(  c #4D514D",
")  c #555244",
"_  c #5A5343",
"`  c #54534B",
"'  c #5A574C",
"]  c #5B5849",
"[  c #454D53",
"{  c #4C5253",
"}  c #495456",
"|  c #545551",
" . c #555954",
".. c #5B5C53",
"X. c #585D59",
"o. c #635A45",
"O. c #635C4B",
"+. c #675B46",
"@. c #635E52",
"#. c #5B625F",
"$. c #66614E",
"%. c #6A634C",
"&. c #71654C",
"*. c #74694C",
"=. c #7C6B4E",
"-. c #706046",
";. c #646153",
":. c #6A6452",
">. c #6E6953",
",. c #64655B",
"<. c #6D6A5C",
"1. c #66695B",
"2. c #736A52",
"3. c #7B6E52",
"4. c #726C5B",
"5. c #7C7154",
"6. c #7C735C",
"7. c #767059",
"8. c #555D65",
"9. c #5C6567",
"0. c #57696E",
"q. c #656A62",
"w. c #6A6D64",
"e. c #646B69",
"r. c #6D726C",
"t. c #6D7265",
"y. c #747466",
"u. c #7A7562",
"i. c #7D7964",
"p. c #74766B",
"a. c #7B7A6C",
"s. c #77776D",
"d. c #6A7673",
"f. c #787D75",
"g. c #696E6A",
"h. c #82765A",
"j. c #84795C",
"k. c #867757",
"l. c #847C63",
"z. c #847E6A",
"x. c #8A7F65",
"c. c #807F75",
"v. c #7A837A",
"b. c #94825E",
"n. c #8D805D",
"m. c #8D8264",
"M. c #8B846C",
"N. c #868063",
"B. c #9A8C6B",
"V. c #958767",
"C. c #848373",
"Z. c #8C8A75",
"A. c #8D8C7B",
"S. c #878675",
"D. c #948C73",
"F. c #958E77",
"G. c #9C9274",
"H. c #92917C",
"J. c #9B947B",
"K. c #979073",
"L. c #9D906F",
"P. c #A08F68",
"I. c #A3936C",
"U. c #AD986E",
"Y. c #AB9C75",
"T. c #A39A7C",
"R. c #A09776",
"E. c #B29E72",
"W. c #B19A6E",
"Q. c #B4A37B",
"!. c #B9A77B",
"~. c #C1AB7B",
"^. c #778886",
"/. c #7F9495",
"(. c #858981",
"). c #8C9184",
"_. c #879082",
"`. c #939582",
"'. c #979A89",
"]. c #879593",
"[. c #909992",
"{. c #A49E89",
"}. c #9AA398",
"|. c #ABA384",
" X c #A7A38A",
".X c #B3AB8D",
"XX c #BAAE8C",
"oX c #B5A984",
"OX c #ACAB92",
"+X c #A6A996",
"@X c #B5AE92",
"#X c #ADB19C",
"$X c #B3B299",
"%X c #B9B69A",
"&X c #BAB08B",
"*X c #99AEA7",
"=X c #AAB7A8",
"-X c #BCBCA2",
";X c #B6BAA4",
":X c #C3B68D",
">X c #CBBE95",
",X c #C5BA97",
"<X c #BDC2A7",
"1X c #BAC8B7",
"2X c #C9C09C",
"3X c #D2C69D",
"4X c #D5C99E",
"5X c #C6C4A6",
"6X c #D4CCA4",
"7X c #D5CCA7",
"8X c #D7D5B5",
"9X c #D4D1AE",
"0X c #E1D6AB",
"qX c #E6E1BA",
"wX c #C5D3C2",
"eX c #DCEAD9",
"rX c #E3E3C1",
"tX c None",
/* pixels */
"tXtXtXtXtXtXtXtXtXtXtXtXtXtXtXtXtXtXtXtXtXtXtXtXtXtXtXtXtXtXtXtXtXtXtXtXtXtXtXtXtXtXtXtXtXtXtXtXtXtXtXtXtXtXtXtXtXtXtXtXtXtXtXtX",
"tXtXtXtXtXtXtXtXtXtXtXtXtXtXtXtXtXtXtXtXtXtXtXtXtXtXtXtXtXtXtXtXtXtXtXtXtXtXtXtXtXtXtXtXtXtXtXtXtXtXtXtXtXtXtXtXtXtXtXtXtXtXtXtX",
"tXtXtXtXtXtXtXtXtXtXtXtXtXtXtXtXtXtXtXtXtXtXtXtXtXtXtXtXtXtXtXtXtXtXtXtXtXtXtXtXtXtXtXtXtXtXtXtXtXtXtXtXtXtXtXtXtXtXtXtXtXtXtXtX",
"tXtXtXtXtXtXtXtXtXtXtXtXtXtXtXtXtXtXtXtXtXtXtXtXtXtXtXtXtXtXtXtXtXtXtXtXtXtXtXtXtXtXtXtXtXtXtXtXtXtXtXtXtXtXtXtXtXtXtXtXtXtXtXtX",
"tXtXtXtXtXtXtXtXtXtXtXtXtXtXtXtXtXtXtXtXtXtXtXtXtXtXtXtXtXtXtXtXtXtXtXtXtXtXtXR ,.w.V tXtXtXtXtXtXtXtXtXtXtXtXtXtXtXtXtXtXtXtXtX",
"tXtXtXtXtXtXtXtXtXtXtXtXtXtXtXtXtXtXtXtXtXtXtXtXtXtXtXtXtXtXtXtXtXtXtXtXtXtXO.a.C.|  .a.( tXtXtXtXtXtXtXtXtXtXtXtXtXtXtXtXtXtXtX",
"tXtXtXtXtXtXtXtXtXtXtXtXtXtXtXtXtXtXtXtXtXtXtXtXtXtXtXtXtXtXtXtXtXtXtX! w.t.c.M.G.OX'.S.A.a.c tXtXtXtXtXtXtXtXtXtXtXtXtXtXtXtXtX",
"tXtXtXtXtXtXtXtXtXtXtXtXtXtXtXtXtXtXtXtXtXtXtXtXtXtXtXtXtXtXtXtXtXtX7 | f.;X#XA.4.M. X;XA.f.}.} tXtXtXtXtXtXtXtXtXtXtXtXtXtXtXtX",
"tXtXtXtXtXtXtXtXtXtXtXtXtXtXtXtXtXtXtXtXtXtXtXtXtXtXtXtX' c.{.s.tXtX  = u w.K K 8.c.{.<X_.} 0.}.tXtXtXtXtXtXtXtXtXtXtXtXtXtXtXtX",
"tXtXtXtXtXtXtXtXtXtXtXtXtXtXtXtXtXtXtXtXtXtXtXtXtX= g <.4.@...z.XXu.= + X 0 g P 8.c.#.@.u.p.Q ^.^.tXtXtXtXtXtXtXtXtXtXtXtXtXtXtX",
"tXtXtXtXtXtXtXtXtXtXtXtXtXtXtXtXtXtXtXtXtXtXtXx @.i.^ z :.D.z.s.w.x e e e a > 4 S.5Xg.{ N.d < d 0.[ tXtXtXtXtXtXtXtXtXtXtXtXtXtX",
"tXtXtXtXtXtXtXtXtXtXtXtXtXtXtXtXtXtXtXtXtXtXu.F.4.u.l.z.o.M.S.z.@.k g C 2.&._ 8 P v.=X).T.Z.X.3 4 U tXtXtXtXtXtXtXtXtXtXtXtXtXtX",
"tXtXtXtXtXtXtXtXtXtXtXtXtXtXtXtXtXtXtXtXtXt h.O.^ B.L.|.R.@.`.`.OXS.../ W +.D.Z.P 0 =X1X+XI.oX,.U p 4 P tXtXtXtXtXtXtXtXtXtXtXtX",
"tXtXtXtXtXtXtXtXtXtXtXtXtXtXtXtXtXtXtXtXtX5 2.O.' O._ m.|.{.4.:.`.A.<.' u 1 E w.U O p.1XwXT.V.g f | { Z.8X;X;X#XE tXtXtXtXtXtXtX",
"tXtXtXtXtXtXtXtXtXtXtXtXtXtXtXO.F.oXM.' / 0 @ q 1 f R _ 4.Q.B.q 7 0 1 9 x e 1 ! X.9 = f.*XS.m.w * %.|.G.{.#X;X#Xv.w.{ tXtXtXtXtX",
"tXtXtXtXtXtXtXtXtXtXtXtXtX$ 0 W u.M.M.l.6.B O > # g >.u.' @.B 5 @ 1 l 8 R w.@.7 l p $ r T Z <.y = ] L.^ C :.w.a.q.! e.9.tXtXtXtX",
"tXtXtXtXtXtXtXtXtXtXtXtXtX= $ 5 / l.K.R.J.T.u.L 4 4 5 O.l.p.| u _ x E C.S.+X}.p.f > 8 9 0.U 7 5 1 y V.:.s 9 B g j 0 %   tXtXtXtX",
"tXtXtXtXtXtXtXtXtXtXtXtX+ $ * $ y O.D.K.x.l.7.C 2 8 4 u V v.[.M.R.oXM ..%X<X#X)...6 3 3 tXtXtXtX@ q >.L.m.' g e 0 >   tXtXtXtXtX",
"tXtXtXtXtXtXtXtXtXtXtXtX$ w S S V %.>.;.4.4.@.W q 5 0 r 7 v.[.3X6X4X>Xz.1.<X%XH.y.x > p tXtXtXtXtXtXy A ; O.] 0 & tXtXtXtXtXtXtX",
"tXtXtXtXtXtXtXtXtXtXtX% q S k.&._ S _ u _ V.4.^ E ) W r t '.[.6XqX0X,X3XN.M |.` B X.k a tXtXtXtXtXtXtXtXtXtXtXtXtXtXtXtXtXtXtXtX",
"tXtXtXtXtXtXtXtXtXtXtX$ w -.-.k.*.A V y x k.*.E c W ! q t 1./.OX0X0X4X>X4Xj.3.>.1 s /  .h tXtXtXtXtXtXtXtXtXtXtXtXtXtXtXtXtXtXtX",
"tXtXtXtXtXtXtXtXtXtXtX% o +.=.-.+.y = 7 x 5.>.u c j E f D N.^.'.2X2X4X4X4X3X6.>.x ..M.`.} tXtXtXtXtXtXtXtXtXtXtXtXtXtXtXtXtXtXtX",
"tXtXtXtXtXtXtXtXtXtXtXo t S *.&.&.y $ q D j.%.g ! / Q % = i s d.:X:X>X4X4X0X&X6.C 0 / g.Y # tXtXtXtXtXtXtXtXtXtXtXtXtXtXtXtXtXtX",
"tXtXtXtXtXtXtXtXtXtXtXtXtXz k.k.&.t @ ; %.m.) k ! E ! 0 >.j.c e.oX:X:X:X3X4X*X^.d.].0.U 9 # tXtXtXtXtXtXtXtXtXtXtXtXtXtXtXtXtXtX",
"tXtXtXtXtXtXtXtXtXtXtXtXtXtXtX_ m._ $ $ A j.) 6 E R j   i 7.O.9.`.oXY.Y.Q.!.Q.Q.B.V.k.V 9 p tXtXtXtXtXtXtXtXtXtXtXtXtXtXtXtXtXtX",
"tXtXtXtXtXtXtXtXtXtXtXtXtXtXtXtXtXx = u 5.5.M f U f R * ) A %.) f.R.P.V.b.P.L.M.x.j.6.' d ! tXtXtXtXtXtXtXtXtXtXtXtXtXtXtXtXtXtX",
"tXtXtXtXtXtXtXtXtXtXtXtXtXtXtXtXtXtXtX; j.m.C ` / B y 7 %.$.$.N e.'.I.W.E.E.I.M.<...1.:.B y 1 tXtXtXtXtXtXtXtXtXtXtXtXtXtXtXtXtX",
"tXtXtXtXtXtXtXtXtXtXtXtXtXtXtXtXtXtXtXtXtXM g w c m.>.; >.N.%.S N A..XoX!.U.&.V.~.W.B.k.N e + tXtXtXtXtXtXtXtXtXtXtXtXtXtXtXtXtX",
"tXtXtXtXtXtXtXtXtXtXtXtXtXtXtXtXtXtXtXtXtXtXtXtXtXL.L.$.M 7.h.%.u w M E ' C u ' m.m.5.+.u 6 tXtXtXtXtXtXtXtXtXtXtXtXtXtXtXtXtXtX",
"tXtXtXtXtXtXtXtXtXtXtXtXtXtXtXtXtXtXtXtXtXtXtXtXtXt M N.N.2.] *.o.7 i A +.S u l y 9 u 0 2 O tXtXtXtXtXtXtXtXtXtXtXtXtXtXtXtXtXtX",
"tXtXtXtXtXtXtXtXtXtXtXtXtXtXtXtXtXtXtXtXtXtXtXtXtXZ.<.a.p.r 2 y z * = t i N ^ W B 9 i u 8 X tXtXtXtXtXtXtXtXtXtXtXtXtXtXtXtXtXtX",
"tXtXtXtXtXtXtXtXtXtXtXtXtXtXtXtXtXtXtXtXtXtXtXtXo.M. X<XOXH.Q , o @ $ 2 % q E 2.l.$.%.g $ tXtXtXtXtXtXtXtXtXtXtXtXtXtXtXtXtXtXtX",
"tXtXtXtXtXtXtXtXtXtXtXtXtXtXtXtX3.;X#Xy.tXtXtXtXn.P.6.7.;./ g O + & > 9 * $ 5 7 m.= tXtXC tXtXtXtXtXtXtXtXtXtXtXtXtXtXtXtXtXtXtX",
"tXtXtXtXtXtXtXtXtXtXtXtXtXtXtXN h..XqXrX;.tXtXtX$.5.b.F $.^ y w F * % % % = @ = 2.tXtXtXtXtXtXtXtXtXtXtXtXtXtXtXtXtXtXtXtXtXtXtX",
"tXtXtXtXtXtXtXtXtXtXtXtXtXtXtXtX2.*.%XqX5XtXtXtXc U =._ %.] C F h.V i * $ t @ . M tXtXtXtXtXtXtXtXtXtXtXtXtXtXtXtXtXtXtXtXtXtXtX",
"tXtXtXtXtXtXtXtXtXtXtXtXtXtXtXtXF 5.h.9XrX$XtX% 5 2 o.o.$.$.C o 5 K k + + +   tXtXtXtXtXtXtXtXtXtXtXtXtXtXtXtXtXtXtXtXtXtXtXtXtX",
"tXtXtXtXtXtXtXtXtXtXtXtXtXtXtXtXtXD *.V.8X.Xu q > O _ $.%.] y   & { wX}.p O tXtXtXtXtXtXtXtXtXtXtXtXtXtXtXtXtXtXtXtXtXtXtXtXtXtX",
"tXtXtXtXtXtXtXtXtXtXtXtXtXtXtXtXtXx _ @.6.= o u o.V -.$.u tX  . w :.;XeX}.| tXtXtXtXtXtXtXtXtXtXtXtXtXtXtXtXtXtXtXtXtXtXtXtXtXtX",
"tXtXtXtXtXtXtXtXtXtXtXtXtXtXtXtX: n v 7 = + @ = w N tXtXtXtXtX$ w =.i.;XrXwXtXtXtXtXtXtXtXtXtXtXtXtXtXtXtXtXtXtXtXtXtXtXtXtXtXtX",
"tXtXtXtXtXtXtXtXtXtXtXtXtXtXtXtXv D H b 7 @ o & 2 tXtXtXtXtXtX@ = 3.R.0X8X5Xd.tXtXtXtXtXtXtXtXtXtXtXtXtXtXtXtXtXtXtXtXtXtXtXtXtX",
"tXtXtXtXtXtXtXtXtXtXtXtXtXtXtXtXw E >.J m g 6  .).q.tXtXtXtXtXtX= o.I.XXz.OX[.f tXtXtXtXtXtXtXtXtXtXtXtXtXtXtXtXtXtXtXtXtXtXtXtX",
"tXtXtXtXtXtXtXtXtXtXtXtXtXtXtXtX= r { m v 2 # J.5X%X8Xf.tXtXtXtX$ V j.j.W `.}.p.tXtXtXtXtXtXtXtXtXtXtXtXtXtXtXtXtXtXtXtXtXtXtXtX",
"tXtXtXtXtXtXtXtXtXtXtXtXtXtXtXtXtX5 B G t , # 5.K.O.5X5XtXtXtXtX% i +.S l A.;X'.I tXtXtXtXtXtXtXtXtXtXtXtXtXtXtXtXtXtXtXtXtXtXtX",
"tXtXtXtXtXtXtXtXtXtXtXtXtXtXtXtXtXo i b : # M 5.b.l.XX5X`.tXtXtXtX= x g 0 J.5X+Xq.tXtXtXtXtXtXtXtXtXtXtXtXtXtXtXtXtXtXtXtXtXtXtX",
"tXtXtXtXtXtXtXtXtXtXtXtXtXtXtXtXtXtXtXtXtXM m.=.=.V.R.XX5XtXtXtXtX% 5 M M ,X-X@Xw.Z tXtXtXtXtXtXtXtXtXtXtXtXtXtXtXtXtXtXtXtXtXtX",
"tXtXtXtXtXtXtXtXtXtXtXtXtXtXtXtXtXtXtXtXtXt 5.$.N V %.4.a. .tXtXtXtX_ +.A T.:X5XS.,.tXtXtXtXtXtXtXtXtXtXtXtXtXtXtXtXtXtXtXtXtXtX",
"tXtXtXtXtXtXtXtXtXtXtXtXtXtXtXtXtXtXtXtXtXtXo.M = * y l Q I 3 tXtXtXD D w / R.7XH.t.c tXtXtXtXtXtXtXtXtXtXtXtXtXtXtXtXtXtXtXtXtX",
"tXtXtXtXtXtXtXtXtXtXtXtXtXtXtXtXtXtXtXtXtXtX; = 1 q j c } Y K tXtXtXh { $ l 4.J. .f c tXtXtXtXtXtXtXtXtXtXtXtXtXtXtXtXtXtXtXtXtX",
"tXtXtXtXtXtXtXtXtXtXtXtXtXtXtXtXtXtXtXtXtXtXtX% @ = f E K } U 0 tX  # [ 5 5 x 4. .y l 6 tXtXtXtXtXtXtXtXtXtXtXtXtXtXtXtXtXtXtXtX",
"tXtXtXtXtXtXtXtXtXtXtXtXtXtXtXtXtXtXtXtXtXtXtXO $ 7 V <.x (.s.p.0   O f 9 1 R i.T.<.Z r tXtXtXtXtXtXtXtXtXtXtXtXtXtXtXtXtXtXtXtX",
"tXtXtXtXtXtXtXtXtXtXtXtXtXtXtXtXtXtXtXtXtXtXtXtXw N &.oXh.,X{.`.q.  . 5 5 * E Z.|.u.! c 5 tXtXtXtXtXtXtXtXtXtXtXtXtXtXtXtXtXtXtX",
"tXtXtXtXtXtXtXtXtXtXtXtXtXtXtXtXtXtXtXtXtXtXtX+ K ! _ l.R.7X7X;X_.2   + * * g y.G.i.{ [ 3 tXtXtXtXtXtXtXtXtXtXtXtXtXtXtXtXtXtXtX",
"tXtXtXtXtXtXtXtXtXtXtXtXtXtXtXtXtXtXtXtXtXtXtX5 8 U _ ` z.6X7X-X'.X.  X w w _ / R  .).9XtXtXtXtXtXtXtXtXtXtXtXtXtXtXtXtXtXtXtXtX",
"tXtXtXtXtXtXtXtXtXtXtXtXtXtXtXtXtXtXtXtXtXtXV 2 1 p x W u.>X2X@X).e.>   w 5 x U j OX8X$Xp.tXtXtXtXtXtXtXtXtXtXtXtXtXtXtXtXtXtXtX",
"tXtXtXtXtXtXtXtXtXtXtXtXtXtXtXtXtXtXtXtXtX6.M.> 5 5 1 l w.:X.XA.y.#.[ . * * S 6.3.E.H.v. XtXtXtXtXtXtXtXtXtXtXtXtXtXtXtXtXtXtXtX",
"tXtXtXtXtXtXtXtXtXtXtXtXtXtXtXtXtXtXtXtXx K.V.5 5 8 @ 9 ` G.z.@.} q.tXtX& * _ x.&.&.g Z. Xz.tXtXtXtXtXtXtXtXtXtXtXtXtXtXtXtXtXtX",
"tXtXtXtXtXtXtXtXtXtXtXtXtXtXtXtXtXtXtXtXtX6 2.a 5 5 * 9 R ..` [ #.;X1.tXtXtXf / E _ g l.A.C.j tXtXtXtXtXtXtXtXtXtXtXtXtXtXtXtXtX",
"tXtXtXtXtXtXtXtXtXtXtXtXtXtXtXtXtXtXtXtXtXtXtX0 8 1 q 5 f ~ a l g.-X'.tXtXtXtXtX0 E R 4.(.~ tXtXtXtXtXtXtXtXtXtXtXtXtXtXtXtXtXtX",
"tXtXtXtXtXtXtXtXtXtXtXtXtXtXtXtXtXtXtXtXtXtXtXtX$ e e 1 5 a 5 = k u.$X:.tXtXtXtXtXtXtXtXtXtXtXtXtXtXtXtXtXtXtXtXtXtXtXtXtXtXtXtX",
"tXtXtXtXtXtXtXtXtXtXtXtXtXtXtXtXtXtXtXtXtXtXtXtXtXtX0 l 5 $ 5 5 5 W OX'.tXtXtXtXtXtXtXtXtXtXtXtXtXtXtXtXtXtXtXtXtXtXtXtXtXtXtXtX",
"tXtXtXtXtXtXtXtXtXtXtXtXtXtXtXtXtXtXtXtXtXtXtXtXtXtXtXtX5 h f 9 6 0 S.).x tXtXtXtXtXtXtXtXtXtXtXtXtXtXtXtXtXtXtXtXtXtXtXtXtXtXtX",
"tXtXtXtXtXtXtXtXtXtXtXtXtXtXtXtXtXtXtXtXtXtXtXtXtXtXtXtXtXtXtX> 0 f h tXtXtXtXtXtXtXtXtXtXtXtXtXtXtXtXtXtXtXtXtXtXtXtXtXtXtXtXtX",
"tXtXtXtXtXtXtXtXtXtXtXtXtXtXtXtXtXtXtXtXtXtXtXtXtXtXtXtXtXtXtXtXtXtXtXtXtXtXtXtXtXtXtXtXtXtXtXtXtXtXtXtXtXtXtXtXtXtXtXtXtXtXtXtX",
"tXtXtXtXtXtXtXtXtXtXtXtXtXtXtXtXtXtXtXtXtXtXtXtXtXtXtXtXtXtXtXtXtXtXtXtXtXtXtXtXtXtXtXtXtXtXtXtXtXtXtXtXtXtXtXtXtXtXtXtXtXtXtXtX"
};
